<svg width="488" height="488" viewBox="0 0 488 488" fill="none" xmlns="http://www.w3.org/2000/svg">
<g filter="url(#filter0_d_1_4248)">
<path d="M421.702 431.15V358.423H276.86V431.15H261.026V269.23H276.86V341.956H421.702V269.23H437.796V431.15H421.702ZM452.332 446.518V253.861H407.166V326.862H291.396V253.861H246.489V446.518H291.396V373.517H407.166V446.518H452.332ZM323.064 320.001H400.677V247H458.821L484 275.267V480H427.413L400.677 453.379V406.999H323.064V480H266.736L240 453.379V247H297.885L323.064 275.267V297.634V320.001Z" fill="#DB9E4D"/>
</g>
<g filter="url(#filter1_d_1_4248)">
<path d="M148.571 109.628C152.644 109.628 156.631 109.1 160.534 108.044C164.437 106.776 167.915 104.875 170.97 102.34C174.194 99.8057 176.739 96.5316 178.606 92.5182C180.472 88.2937 181.405 83.3298 181.405 77.6266C181.405 71.7122 180.472 66.7483 178.606 62.735C176.909 58.5104 174.533 55.1307 171.479 52.596C168.425 49.85 164.946 47.949 161.043 46.8928C157.14 45.6254 153.068 44.9917 148.826 44.9917H39.8883V109.628H148.571ZM148.826 62.735C150.692 62.735 152.729 62.9462 154.935 63.3687C157.141 63.7911 159.177 64.636 161.043 65.9034C162.91 66.9596 164.437 68.4382 165.625 70.3392C166.813 72.2403 167.406 74.6694 167.406 77.6266C167.406 80.5838 166.728 83.013 165.37 84.914C164.182 86.6038 162.57 88.0824 160.534 89.3498C158.668 90.406 156.631 91.1453 154.426 91.5677C152.22 91.9902 150.268 92.2014 148.571 92.2014H54.1418V62.735H148.826ZM162.316 193.274C166.388 193.274 170.461 192.746 174.533 191.69C178.606 190.423 182.169 188.522 185.223 185.987C188.447 183.241 190.993 179.861 192.859 175.848C194.895 171.623 195.913 166.554 195.913 160.64C195.913 155.359 195.065 150.712 193.368 146.698C191.671 142.685 189.381 139.411 186.496 136.876C183.611 134.13 180.302 132.124 176.569 130.856C173.006 129.378 169.273 128.638 165.37 128.638H39.8883V193.274H162.316ZM165.37 146.065C167.067 146.065 168.849 146.382 170.715 147.015C172.752 147.438 174.533 148.283 176.06 149.55C177.757 150.606 179.115 152.085 180.133 153.986C181.151 155.887 181.66 158.105 181.66 160.64C181.66 163.808 180.981 166.343 179.624 168.244C178.436 170.145 176.824 171.623 174.788 172.68C172.921 173.736 170.8 174.475 168.425 174.898C166.219 175.32 164.182 175.531 162.316 175.531H54.1418V146.065H165.37ZM148.826 25.6643C155.783 25.6643 162.231 26.6148 168.17 28.5159C174.109 30.417 179.2 33.4798 183.442 37.7043C187.853 41.9289 191.247 47.3153 193.623 53.8633C196.168 60.4114 197.525 68.3325 197.695 77.6266C197.695 82.6961 196.762 87.5544 194.895 92.2014C193.199 96.6372 191.077 100.545 188.532 103.925C185.987 107.304 183.272 110.05 180.387 112.163C177.503 114.064 175.042 115.12 173.006 115.331C177.588 115.753 182.169 117.232 186.75 119.767C191.332 122.09 195.404 125.259 198.968 129.272C202.701 133.285 205.755 137.932 208.131 143.213C210.506 148.494 211.694 154.303 211.694 160.64C211.694 170.145 210.422 178.277 207.876 185.037C205.331 191.585 201.768 196.971 197.186 201.196C192.774 205.209 187.514 208.166 181.405 210.067C175.466 211.757 169.103 212.602 162.316 212.602H24.6167V25.6643H148.826ZM162.316 230.345C171.479 230.345 179.963 229.078 187.769 226.543C195.574 223.797 202.277 219.678 207.876 214.186C213.476 208.483 217.888 201.301 221.112 192.641C224.336 183.769 225.948 173.102 225.948 160.64C225.948 150.078 223.572 140.678 218.821 132.441C214.239 124.203 207.282 117.654 197.95 112.796C199.986 110.684 201.852 108.255 203.549 105.509C205.246 102.552 206.688 99.4888 207.876 96.3204C209.064 93.1519 209.997 89.9835 210.676 86.8151C211.355 83.4354 211.694 80.3726 211.694 77.6266C211.694 65.5866 210.167 55.2363 207.113 46.576C204.058 37.7043 199.731 30.417 194.132 24.7138C188.702 19.0106 182.084 14.786 174.279 12.04C166.643 9.29407 158.159 7.92108 148.826 7.92108H10.3632V230.345H162.316ZM4 0H148.826C164.098 0 177.927 3.16843 190.314 9.50529C202.701 15.8422 214.239 26.9317 224.93 42.7738C228.493 48.0546 231.717 54.6027 234.602 62.4181C237.486 70.0224 239.522 78.0491 240.71 86.4982C241.898 94.7362 241.898 102.868 240.71 110.895C239.692 118.922 236.977 125.787 232.565 131.49C236.977 133.602 240.71 137.193 243.765 142.263C246.819 147.121 249.279 152.507 251.146 158.422C253.182 164.336 254.624 170.356 255.473 176.482C256.491 182.607 257 187.888 257 192.324C257 206.054 255.218 217.777 251.655 227.493C248.261 236.999 243.51 244.814 237.401 250.94C231.293 257.277 223.996 261.818 215.512 264.564C207.028 267.521 197.78 269 187.769 269H30.2163L4 238.266V0Z" fill="#DB9E4D"/>
</g>
<defs>
<filter id="filter0_d_1_4248" x="236" y="247" width="252" height="241" filterUnits="userSpaceOnUse" color-interpolation-filters="sRGB">
<feFlood flood-opacity="0" result="BackgroundImageFix"/>
<feColorMatrix in="SourceAlpha" type="matrix" values="0 0 0 0 0 0 0 0 0 0 0 0 0 0 0 0 0 0 127 0" result="hardAlpha"/>
<feOffset dy="4"/>
<feGaussianBlur stdDeviation="2"/>
<feComposite in2="hardAlpha" operator="out"/>
<feColorMatrix type="matrix" values="0 0 0 0 0 0 0 0 0 0 0 0 0 0 0 0 0 0 0.25 0"/>
<feBlend mode="normal" in2="BackgroundImageFix" result="effect1_dropShadow_1_4248"/>
<feBlend mode="normal" in="SourceGraphic" in2="effect1_dropShadow_1_4248" result="shape"/>
</filter>
<filter id="filter1_d_1_4248" x="0" y="0" width="261" height="277" filterUnits="userSpaceOnUse" color-interpolation-filters="sRGB">
<feFlood flood-opacity="0" result="BackgroundImageFix"/>
<feColorMatrix in="SourceAlpha" type="matrix" values="0 0 0 0 0 0 0 0 0 0 0 0 0 0 0 0 0 0 127 0" result="hardAlpha"/>
<feOffset dy="4"/>
<feGaussianBlur stdDeviation="2"/>
<feComposite in2="hardAlpha" operator="out"/>
<feColorMatrix type="matrix" values="0 0 0 0 0 0 0 0 0 0 0 0 0 0 0 0 0 0 0.25 0"/>
<feBlend mode="normal" in2="BackgroundImageFix" result="effect1_dropShadow_1_4248"/>
<feBlend mode="normal" in="SourceGraphic" in2="effect1_dropShadow_1_4248" result="shape"/>
</filter>
</defs>
</svg>
